<?xml version="1.0" encoding="UTF-8" standalone="no"?>
<!-- Uploaded to: SVG Repo, www.svgrepo.com, Generator: SVG Repo Mixer Tools -->

<svg
   height="800"
   width="800"
   version="1.1"
   id="Layer_1"
   viewBox="0 0 503.187 503.187"
   xml:space="preserve"
   xmlns="http://www.w3.org/2000/svg"
   xmlns:svg="http://www.w3.org/2000/svg"><defs
   id="defs12" />
<g
   transform="translate(1,1)"
   id="g12"
   style="display:inline;opacity:0.5">
	
	
	
	
	
	
	
	
	
	<path
   d="M 326.134,443.433 H 175.052 c -5.036,0 -8.393,-3.357 -8.393,-8.393 V 183.236 c 0,-5.036 3.357,-8.393 8.393,-8.393 h 151.082 c 5.036,0 8.393,3.357 8.393,8.393 v 251.803 c 0.001,5.036 -3.357,8.394 -8.393,8.394 z M 183.446,426.646 H 317.741 V 191.63 H 183.446 Z"
   id="path9" />
	<path
   d="M 317.741,468.613 H 183.446 c -5.036,0 -8.393,-3.357 -8.393,-8.393 v -25.18 c 0,-5.036 3.357,-8.393 8.393,-8.393 h 134.295 c 5.036,0 8.393,3.357 8.393,8.393 v 25.18 c 0,5.036 -3.357,8.393 -8.393,8.393 z M 191.839,451.826 h 117.508 v -8.393 H 191.839 Z"
   id="path10" />
	<path
   d="M 326.134,502.187 H 175.052 c -5.036,0 -8.393,-3.357 -8.393,-8.393 V 460.22 c 0,-5.036 3.357,-8.393 8.393,-8.393 h 151.082 c 5.036,0 8.393,3.357 8.393,8.393 v 33.574 c 0.001,5.035 -3.357,8.393 -8.393,8.393 z M 183.446,485.4 H 317.741 V 468.613 H 183.446 Z"
   id="path11" />
	<path
   d="M 317.741,191.63 H 183.446 c -5.036,0 -8.393,-3.357 -8.393,-8.393 V 141.27 c 0,-54.557 26.02,-107.436 70.505,-141.01 3.357,-1.679 6.715,-1.679 10.072,0 44.485,33.574 70.505,86.452 70.505,141.01 v 41.967 c -10e-4,5.035 -3.358,8.393 -8.394,8.393 z M 191.839,174.843 h 117.508 v -33.574 c 0,-47.843 -21.823,-93.167 -58.754,-123.384 -36.931,30.216 -58.754,75.541 -58.754,123.384 z"
   id="path12" />
</g>
</svg>
